# xmcd
# 
# Track frame offsets:
#     150
#     15169
#     28936
#     43191
#     59701
#     78931
#     95206
#     107894
#     125407
#     144694
#     163299
# 
# Disc length: 2412
# 
# Revision: 5
# Processed by: cddbd v1.5.2PL0 Copyright (c) Steve Scherf et al.
# Submitted via: fre:ac v1.0.31
# 
DISCID=9d096a0b
DTITLE=Orianthi - Believe
DYEAR=2009
DGENRE=Rock/Pop
TTITLE0=According To You
TTITLE1=Suffocated
TTITLE2=Bad News
TTITLE3=Believe
TTITLE4=Feels Like Home
TTITLE5=Think Like A Man
TTITLE6=What's It Gonna Be
TTITLE7=Untogether
TTITLE8=Drive Away
TTITLE9=Highly Strung
TTITLE10=God Only Knows
EXTD=
EXTT0=
EXTT1=
EXTT2=
EXTT3=
EXTT4=
EXTT5=
EXTT6=
EXTT7=
EXTT8=
EXTT9=
EXTT10=
PLAYORDER=
